<svg width="16" height="16" viewBox="0 0 16 16" fill="none" xmlns="http://www.w3.org/2000/svg">
<path d="M1 4.25049H15" stroke="#212529" stroke-width="1.3" stroke-linecap="round" stroke-linejoin="round"/>
<path d="M2.75 4.25049H13.25V14.0022C13.25 14.2896 13.1271 14.5652 12.9083 14.7684C12.6895 14.9716 12.3928 15.0857 12.0833 15.0857H3.91667C3.60725 15.0857 3.3105 14.9716 3.09171 14.7684C2.87292 14.5652 2.75 14.2896 2.75 14.0022V4.25049Z" stroke="#212529" stroke-width="1.3" stroke-linecap="round" stroke-linejoin="round"/>
<path d="M5.08398 4.25057V3.70881C5.08398 2.99039 5.39128 2.30139 5.93826 1.79339C6.48524 1.28539 7.2271 1 8.00065 1C8.7742 1 9.51607 1.28539 10.063 1.79339C10.61 2.30139 10.9173 2.99039 10.9173 3.70881V4.25057" stroke="#212529" stroke-width="1.3" stroke-linecap="round" stroke-linejoin="round"/>
<path d="M6.25 6.41797V12.3773" stroke="#212529" stroke-width="1.3" stroke-linecap="round" stroke-linejoin="round"/>
<path d="M9.75 6.41797V12.3773" stroke="#212529" stroke-width="1.3" stroke-linecap="round" stroke-linejoin="round"/>
</svg>
