<svg width="24" height="24" viewBox="0 0 24 24" fill="none" xmlns="http://www.w3.org/2000/svg">
<path fill-rule="evenodd" clip-rule="evenodd" d="M4.60267 0.0947813C4.09553 0.227672 3.72723 0.443484 3.32369 0.844312C2.91391 1.25137 2.66533 1.698 2.55433 2.22656C2.45064 2.72044 2.45064 21.2796 2.55433 21.7734C2.66533 22.302 2.91391 22.7486 3.32369 23.1557C3.73309 23.5623 4.0975 23.7735 4.62114 23.9074C4.97378 23.9976 5.16569 24 11.9995 24C18.8332 24 19.0251 23.9976 19.3778 23.9074C19.9109 23.7711 20.2671 23.5646 20.6764 23.1548C20.9337 22.8972 21.0808 22.7007 21.2044 22.4496C21.5301 21.7877 21.5133 22.2418 21.5143 14.0624L21.5151 6.67945L18.1751 3.3397L14.8352 0L9.88994 0.00257812C5.17577 0.0050625 4.92878 0.00932813 4.60267 0.0947813ZM13.5002 3.66797C13.5012 5.68537 13.5228 5.88009 13.811 6.46875C14.0255 6.90694 14.5564 7.45411 14.9847 7.6785C15.5818 7.99134 15.7861 8.01562 17.8195 8.01562H19.6401V14.6547C19.6401 19.7611 19.6268 21.3381 19.5826 21.4856C19.5058 21.7419 19.2406 22 18.9805 22.0713C18.8208 22.1152 17.1806 22.1252 11.8746 22.115L4.97627 22.1016L4.77719 21.9609C4.66769 21.8836 4.53405 21.7359 4.48019 21.6328L4.38227 21.4453L4.369 12.0938C4.35878 4.87491 4.36872 2.69484 4.41264 2.53453C4.48033 2.28722 4.75544 1.99214 4.97809 1.92792C5.06964 1.90153 6.83195 1.88175 9.31586 1.87922L13.4995 1.875L13.5002 3.66797ZM17.1874 6.1298C16.1325 6.14208 16.0976 6.13945 15.8917 6.03347C15.7712 5.97145 15.6192 5.83819 15.5389 5.724L15.3979 5.52342L15.3839 4.35403L15.3699 3.18469L16.8207 4.65094L18.2715 6.11719L17.1874 6.1298ZM11.0151 13.1362V16.1475L10.1946 15.328L9.37417 14.5085L8.70648 15.1762L8.0388 15.8439L9.99559 17.8007L11.9524 19.7575L13.8978 17.8126C14.9678 16.7429 15.8432 15.8461 15.8432 15.8199C15.8432 15.7588 14.6151 14.5312 14.554 14.5312C14.5288 14.5312 14.1442 14.8949 13.6991 15.3393L12.8901 16.1475V13.1362V10.125H11.9526H11.0151V13.1362Z" fill="black"/>
</svg>
