<svg width="40" height="40" viewBox="0 0 40 40" fill="none" xmlns="http://www.w3.org/2000/svg">
<path fill-rule="evenodd" clip-rule="evenodd" d="M11.832 0C4.756 0 0 4.552 0 11.33V28.668C0 35.446 4.756 40 11.832 40H28.168C35.244 40 40 35.446 40 28.668V11.33C40 4.552 35.244 0 28.168 0H11.832ZM11.832 3H28.168C33.534 3 37 6.27 37 11.33V28.668C37 33.728 33.534 37 28.168 37H11.832C6.466 37 3 33.728 3 28.668V11.33C3 6.27 6.466 3 11.832 3ZM18.2974 11.442L10.7829 18.9245C10.7267 18.9791 10.6749 19.038 10.6278 19.1008L10.7694 18.938C10.6985 19.0079 10.6355 19.0842 10.5809 19.1656C10.557 19.2025 10.5338 19.2406 10.5123 19.2798C10.4946 19.3105 10.4785 19.3424 10.4636 19.3749C10.45 19.4062 10.4369 19.4376 10.4248 19.4695C10.4124 19.5006 10.4016 19.5323 10.3919 19.5644C10.3582 19.6776 10.3369 19.7965 10.3303 19.9193C10.3281 19.9466 10.3274 19.9732 10.3274 20L10.334 20.078L10.3419 20.2035C10.3527 20.283 10.3698 20.3606 10.3925 20.4357C10.4016 20.4677 10.4124 20.4994 10.4243 20.5308C10.4369 20.5624 10.45 20.5938 10.4642 20.6246C10.4785 20.6576 10.4946 20.6895 10.5118 20.7209C10.5338 20.7594 10.557 20.7975 10.5818 20.8345C10.5956 20.8563 10.6109 20.8779 10.6269 20.8991C10.6706 20.9563 10.7174 21.0102 10.7677 21.0605L10.7694 21.062L18.2974 28.558C18.5894 28.85 18.9734 28.996 19.3554 28.996C19.7394 28.996 20.1254 28.85 20.4174 28.554C21.0014 27.966 20.9994 27.018 20.4134 26.434L15.46 21.5H28.1722C29.0002 21.5 29.6722 20.828 29.6722 20C29.6722 19.172 29.0002 18.5 28.1722 18.5H15.46L20.4134 13.566C20.9994 12.982 21.0014 12.034 20.4174 11.446C19.8334 10.858 18.8854 10.858 18.2974 11.442Z" fill="#4D8481"/>
</svg>
