<svg width="50" height="16" viewBox="0 0 50 16" fill="none" xmlns="http://www.w3.org/2000/svg">
<g clip-path="url(#clip0_1603_7840)">
<path d="M21.6675 15.7697H17.6172L20.1506 0.28125H24.2007L21.6675 15.7697Z" fill="#00579F"/>
<path d="M36.3492 0.659404C35.5503 0.346017 34.2831 0 32.7163 0C28.7165 0 25.8998 2.10895 25.8825 5.12412C25.8493 7.3487 27.8992 8.58429 29.4323 9.32604C30.9993 10.084 31.532 10.5787 31.532 11.2543C31.5161 12.2919 30.2658 12.7702 29.0996 12.7702C27.4826 12.7702 26.6161 12.5236 25.2994 11.9464L24.766 11.6989L24.1992 15.1757C25.1492 15.6036 26.8994 15.9834 28.7165 16C32.9664 16 35.7332 13.9237 35.766 10.7105C35.7822 8.94739 34.6997 7.59639 32.3661 6.49242C30.9495 5.78374 30.0819 5.30589 30.0819 4.58078C30.0986 3.9216 30.8157 3.24643 32.4149 3.24643C33.7316 3.21336 34.6991 3.52631 35.432 3.83948L35.7983 4.00394L36.3492 0.659404Z" fill="#00579F"/>
<path d="M41.7334 10.2827C42.0669 9.39289 43.3504 5.94914 43.3504 5.94914C43.3336 5.98221 43.6833 5.04293 43.8833 4.4663L44.1664 5.80088C44.1664 5.80088 44.9334 9.5083 45.1 10.2827C44.467 10.2827 42.5334 10.2827 41.7334 10.2827ZM46.733 0.28125H43.6001C42.6339 0.28125 41.8999 0.56113 41.4831 1.56633L35.4668 15.7695H39.7167C39.7167 15.7695 40.4164 13.8578 40.5668 13.4461C41.033 13.4461 45.1673 13.4461 45.7671 13.4461C45.8834 13.9899 46.2504 15.7695 46.2504 15.7695H50.0006L46.733 0.28125Z" fill="#00579F"/>
<path d="M14.2324 0.28125L10.2658 10.8429L9.8323 8.70085C9.09895 6.22924 6.79902 3.54388 4.23242 2.20865L7.86571 15.7532H12.1488L18.5153 0.28125H14.2324Z" fill="#00579F"/>
<path d="M6.58329 0.28125H0.0666676L0 0.594198C5.08337 1.8795 8.44999 4.97766 9.83318 8.70151L8.41654 1.58319C8.18332 0.593979 7.46658 0.313881 6.58329 0.28125Z" fill="#FAA61A"/>
</g>
<defs>
<clipPath id="clip0_1603_7840">
<rect width="50" height="16" fill="white"/>
</clipPath>
</defs>
</svg>
